<svg xmlns="http://www.w3.org/2000/svg" xmlns:xlink="http://www.w3.org/1999/xlink" width="500" zoomAndPan="magnify" viewBox="0 0 375 374.999991" height="500" preserveAspectRatio="xMidYMid meet" version="1.0"><defs><clipPath id="6384fdc49a"><path d="M 42.007812 42.007812 L 332.992188 42.007812 L 332.992188 332.992188 L 42.007812 332.992188 Z M 42.007812 42.007812 " clip-rule="nonzero"/></clipPath><clipPath id="930bdc4b89"><path d="M 187.5 42.007812 C 107.148438 42.007812 42.007812 107.148438 42.007812 187.5 C 42.007812 267.851562 107.148438 332.992188 187.5 332.992188 C 267.851562 332.992188 332.992188 267.851562 332.992188 187.5 C 332.992188 107.148438 267.851562 42.007812 187.5 42.007812 Z M 187.5 42.007812 " clip-rule="nonzero"/></clipPath><clipPath id="cbf4bb7ef0"><path d="M 0.0078125 0.0078125 L 290.992188 0.0078125 L 290.992188 290.992188 L 0.0078125 290.992188 Z M 0.0078125 0.0078125 " clip-rule="nonzero"/></clipPath><clipPath id="9af1215cf3"><path d="M 145.5 0.0078125 C 65.148438 0.0078125 0.0078125 65.148438 0.0078125 145.5 C 0.0078125 225.851562 65.148438 290.992188 145.5 290.992188 C 225.851562 290.992188 290.992188 225.851562 290.992188 145.5 C 290.992188 65.148438 225.851562 0.0078125 145.5 0.0078125 Z M 145.5 0.0078125 " clip-rule="nonzero"/></clipPath><clipPath id="c158e3e85d"><rect x="0" width="291" y="0" height="291"/></clipPath><clipPath id="ef6ffaa47b"><path d="M 21.796875 105.890625 L 353.296875 105.890625 L 353.296875 269.390625 L 21.796875 269.390625 Z M 21.796875 105.890625 " clip-rule="nonzero"/></clipPath><clipPath id="84fabb5db6"><path d="M 1.203125 0.890625 L 331.667969 0.890625 L 331.667969 164.390625 L 1.203125 164.390625 Z M 1.203125 0.890625 " clip-rule="nonzero"/></clipPath><clipPath id="599d7e9317"><rect x="0" width="333" y="0" height="165"/></clipPath></defs><g clip-path="url(#6384fdc49a)"><g clip-path="url(#930bdc4b89)"><g transform="matrix(1, 0, 0, 1, 42, 42)"><g clip-path="url(#c158e3e85d)"><g clip-path="url(#cbf4bb7ef0)"><g clip-path="url(#9af1215cf3)"><path fill="#f5c431" d="M 0.0078125 0.0078125 L 290.992188 0.0078125 L 290.992188 290.992188 L 0.0078125 290.992188 Z M 0.0078125 0.0078125 " fill-opacity="1" fill-rule="nonzero"/></g></g></g></g></g></g><g clip-path="url(#ef6ffaa47b)"><g transform="matrix(1, 0, 0, 1, 21, 105)"><g clip-path="url(#599d7e9317)"><g clip-path="url(#84fabb5db6)"><path fill="#141515" d="M 244.253906 46.148438 L 244.570312 89.644531 C 257.621094 91.765625 270.226562 93.839844 281.253906 95.6875 L 284.855469 60.796875 C 273.828125 56.742188 259.558594 51.601562 244.253906 46.148438 Z M 200.957031 30.730469 L 201.316406 82.839844 C 213.917969 84.777344 227.289062 86.894531 240.382812 88.96875 L 244.121094 46.105469 C 229.941406 41.054688 214.953125 35.738281 200.957031 30.730469 Z M 274.816406 113.582031 L 190.828125 104.746094 C 190.828125 104.746094 191.097656 110.378906 198.476562 112.183594 C 205.90625 113.988281 275.132812 115.292969 275.132812 115.292969 Z M 268.652344 124.761719 L 196.316406 118.585938 C 196.316406 118.585938 197.804688 123.945312 204.152344 125.527344 C 210.542969 127.101562 268.921875 126.472656 268.921875 126.472656 Z M 309.972656 108.488281 C 309.972656 108.488281 161.527344 86.265625 156.84375 87.253906 C 152.207031 88.335938 151.757812 94.199219 151.757812 94.199219 L 309.65625 109.703125 Z M 96.847656 116.195312 C 96.847656 116.195312 83.613281 117.730469 77.761719 119.980469 C 75.015625 121.015625 73.441406 123.089844 72.496094 124.984375 C 76.324219 124.21875 88.832031 121.648438 88.472656 122.640625 C 88.113281 123.722656 78.707031 128.097656 74.253906 129.222656 C 80.238281 129.355469 93.289062 129.582031 95 128.59375 C 97.25 127.285156 96.847656 116.195312 96.847656 116.195312 Z M 101.210938 157.796875 C 103.195312 156.039062 104.859375 153.652344 106.207031 150.722656 C 121.332031 150.542969 134.925781 150.183594 143.523438 149.957031 C 144.917969 153.023438 146.628906 155.589844 148.609375 157.527344 C 131.953125 157.574219 116.023438 157.664062 101.210938 157.796875 Z M 221.300781 157.707031 C 208.742188 157.617188 195.464844 157.527344 181.734375 157.527344 C 183.398438 155.996094 184.976562 154.058594 186.28125 151.761719 L 186.328125 151.667969 L 217.296875 151.894531 C 218.375 154.328125 219.726562 156.355469 221.300781 157.707031 Z M 274.460938 158.339844 C 264.421875 158.160156 253.300781 158.023438 241.332031 157.890625 C 242.949219 156.535156 244.390625 154.554688 245.46875 152.121094 L 269.460938 152.300781 C 270.8125 154.960938 272.523438 157.078125 274.460938 158.339844 Z M 152.117188 141.84375 C 150.453125 141.84375 148.070312 141.886719 145.1875 141.933594 L 141.046875 141.933594 L 141.046875 142.023438 C 113.816406 142.742188 54.222656 144.679688 31.535156 140.671875 C 27.890625 140.042969 25.097656 138.6875 23.707031 137.066406 C 22.984375 136.117188 22.9375 132.285156 23.296875 127.417969 C 27.800781 127.960938 31.941406 128.320312 31.941406 128.320312 C 28.25 126.746094 24.78125 124.941406 24.558594 124.308594 C 24.378906 123.765625 27.800781 124.21875 31.625 124.894531 C 30.367188 119.53125 25.460938 117.730469 20.6875 116.105469 C 18.933594 126.746094 17.042969 140.71875 18.933594 143.058594 C 20.148438 144.589844 24.019531 147.070312 29.78125 148.019531 C 38.242188 149.414062 50.753906 150.183594 64.574219 150.542969 C 66.015625 153.699219 67.90625 156.308594 70.066406 158.160156 C 28.429688 158.792969 1.199219 159.828125 1.199219 160.957031 C 1.199219 162.847656 75.464844 164.425781 166.433594 164.425781 C 257.441406 164.425781 331.667969 162.847656 331.667969 160.957031 C 331.667969 160.144531 317.351562 159.375 293.585938 158.746094 C 295.882812 157.527344 297.90625 155.183594 299.390625 152.121094 L 303.488281 151.941406 L 316.992188 148.242188 L 317.441406 145.988281 L 304.660156 145.808594 L 304.660156 136.570312 C 304.660156 136.296875 304.660156 136.117188 304.660156 135.890625 C 304.660156 124.894531 299.890625 115.925781 290.257812 115.96875 C 280.582031 115.96875 275.855469 124.894531 275.855469 135.890625 C 275.855469 136.117188 275.855469 136.386719 275.855469 136.617188 L 275.855469 145.449219 L 218.960938 144.726562 L 192.132812 144.410156 L 192.132812 138.644531 L 272.027344 138.597656 L 272.027344 135.667969 C 248.488281 134.628906 217.921875 133.324219 192.132812 132.375 L 192.132812 131.519531 C 192.132812 94.425781 156.171875 94.921875 156.171875 132.285156 C 156.171875 135.667969 156.53125 138.914062 157.207031 141.933594 L 152.117188 141.933594 Z M 160.671875 141.210938 C 162.921875 147.925781 166.835938 152.347656 171.292969 152.347656 C 176.019531 152.347656 180.160156 147.253906 182.277344 139.722656 C 179.484375 144.589844 175.480469 147.65625 171.023438 147.65625 C 167.019531 147.65625 163.417969 145.222656 160.671875 141.210938 Z M 171.203125 116.828125 C 167.109375 116.828125 163.820312 121.695312 163.6875 127.734375 C 165.125 124.488281 167.960938 122.277344 171.203125 122.277344 C 174.441406 122.277344 177.28125 124.488281 178.71875 127.734375 C 178.582031 121.695312 175.300781 116.828125 171.203125 116.828125 Z M 171.652344 137.652344 C 170.035156 137.652344 168.773438 135.21875 168.773438 132.242188 C 168.773438 129.265625 170.035156 126.835938 171.652344 126.835938 C 173.230469 126.835938 174.53125 129.265625 174.53125 132.242188 C 174.53125 135.21875 173.230469 137.652344 171.652344 137.652344 Z M 289.988281 127.554688 C 287.195312 127.554688 284.898438 131.023438 284.808594 135.441406 C 285.800781 133.050781 287.78125 131.429688 289.988281 131.429688 C 292.238281 131.429688 294.175781 133.050781 295.160156 135.441406 C 295.070312 131.023438 292.820312 127.554688 289.988281 127.554688 Z M 290.792969 118.585938 C 285.304688 118.585938 280.761719 125.570312 279.949219 134.71875 C 281.839844 128.140625 285.980469 123.632812 290.792969 123.632812 C 295.660156 123.632812 299.890625 128.320312 301.734375 134.992188 C 301.015625 125.75 296.425781 118.585938 290.792969 118.585938 Z M 290.300781 142.609375 C 289.175781 142.609375 288.320312 140.851562 288.320312 138.6875 C 288.320312 136.523438 289.175781 134.765625 290.300781 134.765625 C 291.382812 134.765625 292.28125 136.523438 292.28125 138.6875 C 292.28125 140.851562 291.382812 142.609375 290.300781 142.609375 Z M 282.785156 145.222656 C 284.3125 150.09375 286.96875 153.292969 290.03125 153.292969 C 293.316406 153.292969 296.152344 149.597656 297.636719 144.140625 C 295.703125 147.65625 292.957031 149.867188 289.851562 149.867188 C 287.152344 149.867188 284.628906 148.109375 282.785156 145.222656 Z M 172.417969 106.820312 C 165.980469 106.820312 160.671875 114.527344 159.773438 124.578125 C 161.976562 117.367188 166.792969 112.363281 172.375 112.363281 C 178.089844 112.363281 182.949219 117.546875 185.066406 124.894531 C 184.257812 114.707031 178.898438 106.820312 172.417969 106.820312 Z M 320.054688 95.957031 L 320.457031 72.425781 C 320.414062 66.070312 315.957031 61.15625 309.207031 58.5 C 278.644531 46.375 164.273438 5.578125 132.042969 0.894531 C 121.558594 23.160156 111.519531 55.839844 102.066406 99.785156 C 104.089844 70.714844 109.453125 42.992188 117.234375 16.351562 C 113.410156 16.757812 108.636719 17.390625 104.769531 18.0625 C 100.628906 24.648438 94.550781 44.660156 93.515625 49.890625 C 93.289062 51.152344 82.082031 52.144531 82.9375 47.320312 C 83.03125 46.597656 83.300781 45.425781 83.65625 43.894531 L 83.613281 43.894531 C 83.613281 43.894531 83.746094 43.308594 84.015625 42.269531 C 84.875 38.84375 86.132812 34.339844 87.664062 30.148438 C 88.023438 29.289062 88.339844 28.433594 88.699219 27.621094 C 89.960938 24.289062 91.402344 21.042969 92.929688 18.652344 C 93.289062 18.019531 93.515625 17.660156 93.515625 17.660156 L 93.652344 17.613281 C 94.640625 16.308594 95.628906 15.359375 96.621094 14.910156 C 100.71875 13.109375 112.285156 11.621094 118.855469 10.945312 C 119.800781 7.742188 120.792969 4.585938 121.828125 1.433594 C 101.390625 2.921875 83.390625 6.34375 62.097656 11.351562 C 58.859375 13.425781 55.75 16.308594 52.824219 19.777344 C 47.875 20.542969 32.617188 23.070312 29.015625 25.503906 C 28.429688 25.910156 27.800781 26.585938 27.171875 27.441406 L 27.035156 27.484375 C 27.035156 27.484375 23.480469 32.351562 20.734375 37.808594 C 17.898438 43.578125 15.871094 49.980469 15.332031 52.007812 C 14.296875 55.972656 25.550781 55.164062 25.820312 54.125 C 27.082031 49.753906 33.96875 33.03125 38.375 27.710938 C 41.53125 26.992188 45.21875 26.316406 48.371094 25.773438 C 41.257812 36.367188 35.226562 50.789062 30.546875 66.972656 C 40.539062 68.914062 50.890625 70.535156 61.78125 72.742188 C 54.042969 72.472656 42.023438 71.707031 29.644531 70.308594 C 29.015625 72.605469 28.386719 74.90625 27.84375 77.25 C 40.628906 80.589844 54.042969 83.019531 68.265625 85.496094 C 58.542969 85.40625 42.113281 84.777344 26.496094 82.976562 C 26.179688 84.417969 25.910156 85.859375 25.597656 87.253906 C 41.621094 91.808594 58.316406 94.425781 76.503906 97.039062 C 64.574219 97.308594 42.472656 96.902344 24.199219 94.515625 C 24.019531 95.6875 23.839844 96.8125 23.660156 97.984375 C 42.292969 103.574219 61.648438 105.601562 83.074219 108.304688 C 69.300781 108.890625 41.796875 109.117188 22.398438 106.054688 C 22.21875 107.585938 21.996094 109.160156 21.8125 110.738281 C 41.035156 114.753906 68.535156 116.015625 97.703125 111.417969 C 99.140625 111.191406 100.492188 110.828125 101.75 110.378906 L 100.988281 135.847656 L 107.152344 107.449219 C 119.9375 97.9375 123.222656 75.535156 138.210938 75.535156 L 135.78125 132.734375 L 110.304688 137.652344 L 140.957031 137.199219 L 143.117188 69.496094 L 143.070312 69.496094 L 147.125 15.855469 L 147.527344 75.671875 C 157.789062 76.527344 176.109375 79.050781 197.082031 82.207031 L 200.957031 30.730469 C 168.910156 19.371094 142.039062 9.953125 142.039062 9.953125 L 302.183594 61.292969 C 314.160156 63.679688 314.160156 73.914062 314.742188 83.652344 C 314.742188 83.652344 312.3125 72.742188 306.414062 69.046875 C 305.738281 68.550781 297.546875 65.4375 285.171875 60.886719 L 285.441406 96.363281 C 299.125 98.660156 309.972656 100.507812 315.640625 101.457031 L 319.785156 136.164062 L 320.054688 95.957031 " fill-opacity="1" fill-rule="evenodd"/></g></g></g></g></svg>